<?xml version="1.0" encoding="UTF-8" ?>
<!DOCTYPE svg PUBLIC "-//W3C//DTD SVG 1.1//EN" "http://www.w3.org/Graphics/SVG/1.1/DTD/svg11.dtd">
<svg width="380pt" height="148pt" viewBox="0 0 2060 800" version="1.1" xmlns="http://www.w3.org/2000/svg">
<g id="ffffffff">
</g>
<g id="F003247ff">
<path fill="#003247" opacity="1.00" d=" M 218.74 92.76 C 276.66 58.32 344.56 40.83 411.93 43.44 C 466.79 45.39 521.17 60.27 569.37 86.55 C 634.11 121.67 687.09 177.74 718.86 244.16 C 738.28 284.43 749.97 328.41 753.03 373.02 C 754.42 395.31 754.47 417.95 749.46 439.83 C 742.01 474.89 721.86 507.78 691.71 527.71 C 660.19 549.16 620.38 555.57 583.01 550.91 C 550.06 546.96 517.35 533.21 494.71 508.40 C 481.05 493.61 471.55 475.26 466.30 455.89 C 456.36 419.02 458.75 378.96 472.67 343.42 C 479.88 325.71 490.13 308.31 506.01 297.07 C 533.41 278.99 571.49 278.72 599.02 296.70 C 615.31 307.27 628.72 323.04 634.43 341.80 C 636.79 349.77 638.11 358.19 637.22 366.50 C 589.32 366.50 541.41 366.50 493.51 366.50 C 493.50 390.08 493.50 413.66 493.51 437.24 C 575.98 437.23 658.45 437.29 740.92 437.21 C 742.35 397.52 735.79 357.32 720.69 320.51 C 706.44 285.74 682.81 254.49 651.61 233.25 C 623.65 213.89 589.82 203.33 555.83 202.90 C 511.91 202.18 468.00 217.36 433.65 244.70 C 412.44 261.51 394.97 283.16 383.64 307.78 C 356.40 369.35 356.54 443.04 386.13 503.77 C 401.91 536.58 426.43 564.93 455.92 586.17 C 474.27 599.48 494.46 610.16 515.52 618.48 C 534.18 625.92 553.63 631.49 573.54 634.27 C 605.67 638.97 638.72 636.12 669.80 626.89 C 618.59 687.54 546.38 729.99 468.50 745.33 C 383.41 762.49 292.26 746.71 217.81 702.11 C 155.68 665.31 105.62 608.79 76.13 542.92 C 55.09 496.32 44.33 445.10 44.99 393.97 C 45.44 346.99 55.49 300.16 74.04 257.01 C 103.24 188.75 154.81 130.45 218.74 92.76 M 205.50 362.70 C 191.34 366.10 179.55 377.78 176.08 391.93 C 171.61 408.25 179.09 426.78 193.41 435.69 C 203.46 442.30 216.59 443.86 227.95 439.97 C 235.98 437.26 243.15 431.98 247.98 425.00 C 254.77 415.55 257.14 403.05 254.14 391.79 C 251.17 380.15 242.68 370.08 231.74 365.14 C 223.59 361.42 214.19 360.47 205.50 362.70 Z" />
<path fill="#003247" opacity="1.00" d=" M 998.95 206.98 C 1050.63 195.95 1107.35 207.02 1149.55 239.32 C 1165.53 251.35 1178.44 266.98 1189.05 283.84 C 1208.75 315.42 1222.11 351.01 1227.73 387.82 C 1230.15 404.25 1230.99 420.96 1229.43 437.51 C 1147.54 437.48 1065.64 437.52 983.75 437.49 C 983.75 413.74 983.74 390.00 983.75 366.25 C 1031.08 366.24 1078.42 366.26 1125.75 366.24 C 1127.08 337.02 1109.74 308.65 1084.59 294.37 C 1062.45 281.57 1034.75 280.56 1010.85 288.82 C 992.51 295.18 977.20 308.92 967.88 325.83 C 954.79 349.24 951.17 376.66 951.36 403.11 C 951.58 421.01 952.94 439.03 957.36 456.43 C 961.17 471.29 967.47 485.73 977.27 497.64 C 983.83 505.53 991.68 512.38 1000.59 517.52 C 1015.64 526.23 1032.71 531.78 1050.16 532.35 C 1072.08 533.13 1094.39 524.49 1109.45 508.41 C 1119.10 498.31 1125.65 485.50 1129.03 472.00 C 1162.53 471.99 1196.04 472.00 1229.55 472.00 C 1227.83 489.48 1220.73 505.89 1212.43 521.18 C 1203.22 537.71 1192.04 553.23 1178.58 566.57 C 1165.97 578.95 1150.59 588.12 1134.74 595.74 C 1090.96 616.23 1039.41 620.55 993.21 605.84 C 973.96 599.46 955.45 590.68 938.66 579.28 C 914.76 563.28 894.67 541.67 880.36 516.72 C 863.29 487.07 854.23 453.17 852.37 419.10 C 851.07 396.51 853.11 373.69 858.87 351.78 C 868.50 314.90 886.19 279.43 913.45 252.41 C 936.57 229.14 966.88 213.49 998.95 206.98 Z" />
<path fill="#003247" opacity="1.00" d=" M 1760.02 213.07 C 1780.62 206.25 1802.35 203.39 1823.99 202.75 C 1847.97 202.73 1872.15 202.27 1895.85 206.55 C 1913.14 209.74 1929.79 216.18 1944.93 225.08 C 1968.06 239.19 1986.46 261.84 1993.57 288.16 C 1997.83 308.44 1999.48 329.17 2000.93 349.81 C 2002.87 376.86 2002.10 403.98 2002.25 431.07 C 2002.15 462.71 2002.50 494.37 2001.99 526.00 C 2002.51 551.48 2003.46 578.05 2014.67 601.47 C 1983.00 601.55 1951.33 601.48 1919.67 601.50 C 1913.85 591.52 1911.40 580.07 1908.49 569.02 C 1884.09 590.87 1852.98 604.67 1820.83 610.24 C 1798.77 613.92 1776.08 613.47 1754.09 609.56 C 1734.93 606.06 1716.53 598.55 1700.45 587.55 C 1686.11 578.13 1673.96 565.37 1665.51 550.43 C 1655.28 532.45 1650.24 511.62 1650.74 490.96 C 1650.68 473.62 1656.26 456.64 1664.68 441.62 C 1673.17 426.74 1685.34 414.12 1699.45 404.47 C 1717.61 391.98 1738.56 384.06 1759.93 379.12 C 1782.33 373.79 1805.43 372.87 1828.15 369.56 C 1844.06 367.29 1860.17 364.53 1874.96 357.98 C 1884.50 353.73 1893.89 347.14 1897.94 337.14 C 1901.37 328.11 1901.64 317.79 1898.25 308.71 C 1893.42 295.57 1881.48 286.50 1868.88 281.39 C 1850.67 274.20 1830.25 272.90 1811.17 277.07 C 1795.60 280.56 1780.82 289.63 1772.67 303.61 C 1766.72 313.56 1764.27 325.25 1764.21 336.76 C 1734.13 336.75 1704.05 336.75 1673.97 336.76 C 1674.52 317.18 1677.81 297.48 1685.38 279.33 C 1692.11 263.10 1702.59 248.38 1716.07 237.07 C 1728.86 226.14 1744.11 218.38 1760.02 213.07 M 1881.54 419.35 C 1858.57 427.45 1834.11 429.50 1810.58 435.42 C 1796.10 439.03 1781.26 443.82 1769.84 453.83 C 1762.12 460.51 1757.22 469.85 1754.41 479.54 C 1752.55 486.20 1751.85 493.29 1753.32 500.11 C 1755.49 511.70 1763.42 521.60 1773.36 527.66 C 1789.27 537.47 1808.82 539.47 1827.07 537.34 C 1845.16 535.07 1863.57 530.42 1878.65 519.76 C 1891.74 510.61 1901.32 496.05 1902.91 479.99 C 1905.73 455.44 1905.45 430.64 1905.01 405.98 C 1898.27 412.10 1890.06 416.32 1881.54 419.35 Z" />
<path fill="#003247" opacity="1.00" d=" M 1371.55 213.34 C 1395.83 205.47 1421.65 202.95 1447.07 204.09 C 1468.77 205.22 1490.36 209.48 1510.69 217.23 C 1526.94 223.45 1542.55 231.76 1555.96 242.94 C 1567.07 252.05 1575.63 263.93 1582.27 276.60 C 1591.91 295.58 1597.20 316.91 1596.49 338.25 C 1568.65 338.25 1540.80 338.25 1512.96 338.25 C 1512.02 320.16 1505.32 301.59 1491.42 289.45 C 1479.00 278.49 1462.29 273.80 1446.03 272.99 C 1427.82 271.95 1408.67 274.33 1392.75 283.81 C 1383.62 289.28 1375.81 297.70 1372.86 308.10 C 1368.72 321.48 1374.57 337.24 1386.37 344.76 C 1393.45 349.48 1401.63 352.16 1409.78 354.38 C 1424.46 358.24 1439.53 360.24 1454.49 362.74 C 1474.60 366.33 1494.81 369.52 1514.63 374.55 C 1534.07 379.56 1553.47 386.36 1569.90 398.18 C 1581.74 406.67 1591.51 418.08 1597.67 431.32 C 1615.41 467.72 1611.60 512.32 1592.35 547.35 C 1582.76 563.75 1569.27 577.84 1553.39 588.25 C 1539.33 597.57 1523.44 603.86 1507.13 607.97 C 1485.85 613.27 1463.82 614.90 1441.95 614.76 C 1419.69 614.48 1397.28 611.92 1376.03 605.06 C 1357.82 599.26 1340.62 590.29 1325.47 578.63 C 1312.77 569.22 1302.75 556.65 1294.70 543.15 C 1282.40 522.35 1274.38 498.57 1274.22 474.25 C 1303.56 474.23 1332.89 474.27 1362.23 474.23 C 1365.65 492.71 1371.82 511.90 1385.99 525.02 C 1398.15 536.38 1414.81 541.15 1430.99 542.96 C 1450.51 545.06 1470.86 542.95 1488.85 534.78 C 1498.32 530.29 1507.21 523.60 1512.25 514.22 C 1516.73 506.28 1517.48 496.84 1516.82 487.91 C 1516.14 479.88 1512.57 471.90 1506.20 466.81 C 1498.84 460.80 1489.56 457.96 1480.53 455.59 C 1455.91 449.60 1430.72 446.45 1406.00 440.93 C 1384.73 436.22 1363.55 430.46 1343.69 421.37 C 1330.35 415.23 1317.52 407.35 1307.73 396.24 C 1292.72 379.48 1284.28 357.37 1282.90 335.01 C 1281.62 311.46 1286.48 287.14 1299.04 266.98 C 1315.29 240.66 1342.62 222.94 1371.55 213.34 Z" />
</g>
</svg>
