<?xml version="1.0" encoding="UTF-8" standalone="no"?>
<svg
   xmlns:dc="http://purl.org/dc/elements/1.1/"
   xmlns:cc="http://creativecommons.org/ns#"
   xmlns:rdf="http://www.w3.org/1999/02/22-rdf-syntax-ns#"
   xmlns:svg="http://www.w3.org/2000/svg"
   xmlns="http://www.w3.org/2000/svg"
   height="400.05353"
   width="312.14844"
   version="1.1"
   id="svg2">
  <metadata
     id="metadata8">
    <rdf:RDF>
      <cc:Work
         rdf:about="">
        <dc:format>image/svg+xml</dc:format>
        <dc:type
           rdf:resource="http://purl.org/dc/dcmitype/StillImage" />
        <dc:title></dc:title>
      </cc:Work>
    </rdf:RDF>
  </metadata>
  <defs
     id="defs6" />
  <path
     id="path1370"
     d="M 169.60561,5.4234661 C -184.20365,227.54355 203.08109,323.21031 203.08109,323.21031"
     style="fill:none;stroke:#ff0000;stroke-width:1px;stroke-linecap:butt;stroke-linejoin:miter;stroke-opacity:1" />
  <path
     style="fill:none;stroke:#ff0000;stroke-width:1px;stroke-linecap:butt;stroke-linejoin:miter;stroke-opacity:1"
     d="M 299.09107,62.387606 C -142.31948,78.811006 50.676234,322.99774 50.676234,322.99774"
     id="path1374" />
  <path
     id="path1376"
     d="m 302.68716,234.15468 c -625.48412,-220.876284 -6.31609,90.05315 -6.31609,90.05315"
     style="fill:none;stroke:#ff0000;stroke-width:1px;stroke-linecap:butt;stroke-linejoin:miter;stroke-opacity:1" />
  <path
     id="path1378"
     d="M 188.07509,29.646836 V 220.20069 L 73.452594,169.41857 c 0,0 11.16068,-63.82203 121.914056,-144.347964"
     style="fill:#ffffff;stroke:#000000;stroke-width:9;stroke-linecap:butt;stroke-linejoin:miter;stroke-miterlimit:4;stroke-dasharray:none;stroke-opacity:1" />
  <path
     id="path1380"
     d="m 251.5863,68.056236 0.0873,154.320824 -63.59855,-27.37782 v -77.57189 c 2.51588,11.15277 -14.06014,-11.00651 68.64217,-53.566764"
     style="fill:#ffffff;stroke:#000000;stroke-width:9;stroke-linecap:butt;stroke-linejoin:miter;stroke-miterlimit:4;stroke-dasharray:none;stroke-opacity:1" />
  <path
     id="path1382"
     d="M 255.35773,261.89835 46.933704,168.53424 c 0,0 34.74503,54.1236 51.60141,66.89758 5.533776,4.19357 26.836916,12.15023 26.836916,12.15023"
     style="fill:none;stroke:#000000;stroke-width:4;stroke-linecap:round;stroke-linejoin:miter;stroke-miterlimit:4;stroke-dasharray:none;stroke-opacity:1" />
  <path
     id="path1384"
     d="M 247.53983,236.14657 219.85548,222.17503"
     style="fill:none;stroke:#000000;stroke-width:3;stroke-linecap:round;stroke-linejoin:miter;stroke-miterlimit:4;stroke-dasharray:none;stroke-opacity:1" />
  <path
     style="fill:none;stroke:#000000;stroke-width:3;stroke-linecap:round;stroke-linejoin:miter;stroke-miterlimit:4;stroke-dasharray:none;stroke-opacity:1"
     d="m 238.83349,233.77141 -18.27167,-9.22122"
     id="path1392" />
  <path
     id="path1394"
     d="m 238.83349,243.77141 -18.27167,-9.22122"
     style="fill:none;stroke:#000000;stroke-width:3;stroke-linecap:round;stroke-linejoin:miter;stroke-miterlimit:4;stroke-dasharray:none;stroke-opacity:1" />
  <path
     style="fill:#000000;stroke:#000000;stroke-width:3;stroke-linecap:round;stroke-linejoin:miter;stroke-miterlimit:4;stroke-dasharray:none;stroke-opacity:1"
     d="M 247.53983,246.14657 219.85548,232.17503"
     id="path1396" />
  <path
     style="fill:none;stroke:#000000;stroke-width:4;stroke-linecap:round;stroke-linejoin:miter;stroke-miterlimit:4;stroke-dasharray:none;stroke-opacity:1"
     d="M 243.1423,259.31339 55.039614,175.05229 c 0,0 31.35739,48.84655 46.570276,60.37506 4.99423,3.7847 32.97745,13.67233 32.97745,13.67233"
     id="path1398" />
  <path
     id="path1400"
     d="M 209.75143,247.7126 64.201144,182.51297 c 0,0 27.76661,42.73238 39.538046,51.6529 3.86446,2.92853 38.00692,15.96833 38.00692,15.96833"
     style="fill:#ffffff;stroke:#000000;stroke-width:4;stroke-linecap:round;stroke-linejoin:miter;stroke-miterlimit:4;stroke-dasharray:none;stroke-opacity:1" />
  <path
     style="fill:none;stroke:#000000;stroke-width:4;stroke-linecap:round;stroke-linejoin:miter;stroke-miterlimit:4;stroke-dasharray:none;stroke-opacity:1"
     d="m 212.51784,30.746826 c 0,0 -9.24546,-2.48016 -14.87644,-6.3869 -3.47892,-2.41365 -3.78344,-1.767 -9.59639,2.85001 -1.63412,1.29792 -5.22985,4.20969 -5.22985,4.20969"
     id="path1402" />
  <path
     id="path1406"
     d="m 274.55077,70.172296 c 0,0 -8.98846,-2.6894 -14.61127,-6.60787 -4.09764,-2.8556 -4.137,-3.22542 -10.21511,2.98259 -1.45995,1.49115 -4.8763,4.03291 -4.8763,4.03291"
     style="fill:none;stroke:#000000;stroke-width:4;stroke-linecap:round;stroke-linejoin:miter;stroke-miterlimit:4;stroke-dasharray:none;stroke-opacity:1" />
  <path
     id="path1408"
     d="m 253.47037,67.371576 4.00741,-2.07875 2.53333,-1.3021"
     style="fill:none;stroke:#000000;stroke-width:6;stroke-linecap:butt;stroke-linejoin:miter;stroke-miterlimit:4;stroke-dasharray:none;stroke-opacity:1" />
  <path
     style="fill:none;stroke:#000000;stroke-width:6;stroke-linecap:butt;stroke-linejoin:miter;stroke-miterlimit:4;stroke-dasharray:none;stroke-opacity:1"
     d="m 192.13301,29.321396 3.64175,-2.668 2.30402,-1.67474"
     id="path1419" />
  <text
     id="text1442"
     y="355.93893"
     x="3.8802083"
     style="font-style:normal;font-variant:normal;font-weight:normal;font-stretch:normal;font-size:26.66666603px;line-height:1.25;font-family:Georgia;-inkscape-font-specification:'Georgia, Normal';font-variant-ligatures:normal;font-variant-caps:normal;font-variant-numeric:normal;font-feature-settings:normal;text-align:start;letter-spacing:0px;word-spacing:0px;writing-mode:lr-tb;text-anchor:start;fill:#000000;fill-opacity:1;stroke:none"
     xml:space="preserve"><tspan
       y="355.93893"
       x="3.8802083"
       id="tspan833">European Shock-Tube for</tspan><tspan
       y="389.27228"
       x="3.8802083"
       id="tspan835">High Enthalpy Research</tspan></text>
</svg>
