<?xml version="1.0" encoding="UTF-8" standalone="no"?>
<!-- Created with Inkscape (http://www.inkscape.org/) -->

<svg
   xmlns:dc="http://purl.org/dc/elements/1.1/"
   xmlns:cc="http://creativecommons.org/ns#"
   xmlns:rdf="http://www.w3.org/1999/02/22-rdf-syntax-ns#"
   xmlns:svg="http://www.w3.org/2000/svg"
   xmlns="http://www.w3.org/2000/svg"
   xmlns:sodipodi="http://sodipodi.sourceforge.net/DTD/sodipodi-0.dtd"
   xmlns:inkscape="http://www.inkscape.org/namespaces/inkscape"
   version="1.1"
   id="svg2"
   xml:space="preserve"
   width="394.0676"
   height="227.65466"
   viewBox="0 0 394.0676 227.65466"
   sodipodi:docname="logo_IPFN_color_transp_2014-compact.svg"
   inkscape:version="0.92.5 (2060ec1f9f, 2020-04-08)"><metadata
     id="metadata8"><rdf:RDF><cc:Work
         rdf:about=""><dc:format>image/svg+xml</dc:format><dc:type
           rdf:resource="http://purl.org/dc/dcmitype/StillImage" /><dc:title></dc:title></cc:Work></rdf:RDF></metadata><defs
     id="defs6"><clipPath
       clipPathUnits="userSpaceOnUse"
       id="clipPath22"><path
         d="M 155,30 H 266 V 141 H 155 Z"
         id="path20"
         inkscape:connector-curvature="0" /></clipPath><clipPath
       clipPathUnits="userSpaceOnUse"
       id="clipPath54"><path
         d="m 30,30 h 92 V 141 H 30 Z"
         id="path52"
         inkscape:connector-curvature="0" /></clipPath></defs><sodipodi:namedview
     pagecolor="#ffffff"
     bordercolor="#666666"
     borderopacity="1"
     objecttolerance="10"
     gridtolerance="10"
     guidetolerance="10"
     inkscape:pageopacity="0"
     inkscape:pageshadow="2"
     inkscape:window-width="778"
     inkscape:window-height="417"
     id="namedview4"
     showgrid="false"
     inkscape:zoom="1.0366579"
     inkscape:cx="197.0338"
     inkscape:cy="113.82733"
     inkscape:window-x="0"
     inkscape:window-y="0"
     inkscape:window-maximized="0"
     inkscape:current-layer="g10" /><g
     id="g10"
     inkscape:groupmode="layer"
     inkscape:label="logo_IPFN_color_transp_2014-compact"
     transform="matrix(1.3333333,0,0,-1.3333333,0,227.65466)"><g
       id="g12"><g
         id="g14"
         transform="translate(0,-0.259003)"><g
           id="g16"><g
             id="g18"
             clip-path="url(#clipPath22)"><g
               id="g24"><path
                 d="m 224.098,45.332 c 6.207,11.898 9.656,25.02 9.656,38.813 0,14.832 -3.988,28.886 -11.113,41.48 -0.051,0.02 -0.11,0.031 -0.164,0.047 4.046,-13.57 6.246,-28.051 6.246,-43.094 0,-12.898 -1.614,-25.387 -4.625,-37.246"
                 style="fill:#fbaa27;fill-opacity:1;fill-rule:nonzero;stroke:none"
                 id="path26"
                 inkscape:connector-curvature="0" /><path
                 d="m 215.832,43.906 c 6.109,13.149 9.422,27.239 9.422,41.899 0,14.429 -3.223,28.3 -9.149,41.273 -0.027,0.004 -0.058,0.008 -0.082,0.008 3.872,-13.18 5.95,-27.676 5.782,-42.879 -0.157,-14.266 -2.274,-27.863 -5.973,-40.301"
                 style="fill:#fbaa27;fill-opacity:1;fill-rule:nonzero;stroke:none"
                 id="path28"
                 inkscape:connector-curvature="0" /><path
                 d="m 209,42.836 c 6.836,13.336 10.668,28.281 10.668,44.07 0,14.43 -3.199,28.153 -8.965,40.582 -0.187,0.004 -0.371,0.016 -0.558,0.016 -23.391,0 -42.348,-18.961 -42.348,-42.348 0,-23.004 18.344,-41.711 41.203,-42.32"
                 style="fill:#fbaa27;fill-opacity:1;fill-rule:nonzero;stroke:none"
                 id="path30"
                 inkscape:connector-curvature="0" /><path
                 d="m 236.484,85.527 c 0,-12.211 -1.64,-23.976 -4.672,-35.019 6.602,10.39 10.356,22.324 10.356,35.019 0,12.684 -3.758,24.602 -10.348,34.989 3.028,-11.036 4.664,-22.789 4.664,-34.989"
                 style="fill:#fbaa27;fill-opacity:1;fill-rule:nonzero;stroke:none"
                 id="path32"
                 inkscape:connector-curvature="0" /><path
                 d="m 247.309,85.805 c 0,-9.293 -1.961,-18.106 -5.454,-26.039 5.653,7.121 9.032,16.054 9.032,25.761 0,9.407 -3.16,18.086 -8.5,25.09 3.164,-7.609 4.922,-15.996 4.922,-24.812"
                 style="fill:#fbaa27;fill-opacity:1;fill-rule:nonzero;stroke:none"
                 id="path34"
                 inkscape:connector-curvature="0" /><path
                 d="m 204.852,37.188 1.617,2.117 c -23.602,1.961 -42.157,21.722 -42.157,45.84 0,24.917 19.805,45.187 44.524,45.972 v 9.852 c -29.668,-1.047 -53.398,-25.403 -53.398,-55.328 0,-26.743 18.957,-49.024 44.156,-54.211 z"
                 style="fill:#00a0e3;fill-opacity:1;fill-rule:nonzero;stroke:none"
                 id="path36"
                 inkscape:connector-curvature="0" /><path
                 d="m 219.801,126.691 c -1.789,5.036 -3.863,9.829 -6.219,14.309 -0.008,0 -0.016,0 -0.023,0 2.144,-4.465 4.027,-9.207 5.632,-14.168 0.204,-0.047 0.407,-0.09 0.61,-0.141 m -1.309,-82.554 c -1.68,-4.867 -3.621,-9.516 -5.828,-13.879 1.133,0.039 2.258,0.101 3.375,0.207 2.094,4.562 3.922,9.398 5.457,14.457 -0.984,-0.301 -1.988,-0.555 -3.004,-0.785"
                 style="fill:#00a0e3;fill-opacity:1;fill-rule:nonzero;stroke:none"
                 id="path38"
                 inkscape:connector-curvature="0" /><path
                 d="m 238.434,56.105 c -1.996,-7.824 -4.739,-15.214 -8.141,-22.015 1.242,0.476 2.469,1 3.668,1.562 3.301,7.399 5.848,15.41 7.527,23.864 -0.957,-1.192 -1.976,-2.332 -3.054,-3.411 m 1.488,57.641 c -2.164,8.266 -5.172,16.035 -8.91,23.133 -0.098,0.039 -0.192,0.074 -0.289,0.113 3.304,-6.769 5.965,-14.105 7.89,-21.867 0.446,-0.449 0.887,-0.906 1.309,-1.379"
                 style="fill:#00a0e3;fill-opacity:1;fill-rule:nonzero;stroke:none"
                 id="path40"
                 inkscape:connector-curvature="0" /><path
                 d="m 246.543,127.211 c -0.137,0.121 -0.27,0.238 -0.406,0.355 5.699,-12.628 8.906,-26.785 8.906,-41.746 0,-15.515 -3.449,-30.172 -9.559,-43.16 1.469,1.199 2.868,2.473 4.204,3.813 4.406,11.332 6.843,23.75 6.843,36.773 0,15.84 -3.609,30.785 -9.988,43.965"
                 style="fill:#00a0e3;fill-opacity:1;fill-rule:nonzero;stroke:none"
                 id="path42"
                 inkscape:connector-curvature="0" /><path
                 d="m 264.984,86.926 c 0,-5.594 -0.449,-11.074 -1.312,-16.406 0.926,3.304 1.551,6.738 1.844,10.265 0.019,0.82 0.035,1.637 0.035,2.457 0,4.047 -0.254,8.028 -0.711,11.938 -0.11,0.617 -0.223,1.23 -0.356,1.84 0.328,-3.321 0.5,-6.684 0.5,-10.094"
                 style="fill:#00a0e3;fill-opacity:1;fill-rule:nonzero;stroke:none"
                 id="path44"
                 inkscape:connector-curvature="0" /></g></g></g></g><g
         id="g46"
         transform="translate(0,-0.259003)"><g
           id="g48"><g
             id="g50"
             clip-path="url(#clipPath54)"><g
               id="g56"><path
                 d="m 75.617,30.316 c 0,0 -45.617,22.379 -45.617,64.157 v 46.398 h 91.402 V 94.473 c 0,-41.778 -45.785,-64.157 -45.785,-64.157"
                 style="fill:#00a0e3;fill-opacity:1;fill-rule:evenodd;stroke:none"
                 id="path58"
                 inkscape:connector-curvature="0" /><path
                 d="M 100.031,105.965 H 96.227 V 77.352 h -8.235 l -0.004,28.613 h -3.797 v 5.734 h 15.84 z"
                 style="fill:#ffffff;fill-opacity:1;fill-rule:nonzero;stroke:none"
                 id="path60"
                 inkscape:connector-curvature="0" /><path
                 d="m 63.262,77.371 h -8.231 l 0.008,34.328 h 8.215 z"
                 style="fill:#ffffff;fill-opacity:1;fill-rule:nonzero;stroke:none"
                 id="path62"
                 inkscape:connector-curvature="0" /><path
                 d="m 83.844,131.156 c -6.813,0 -12.336,-3.535 -12.336,-10.347 V 68.223 c 0,-5.77 0,-8.633 -4.102,-8.633 -3.812,0 -4.144,2.851 -4.144,7.055 0,2.273 -1.848,4.113 -4.117,4.113 -2.27,0 -4.11,-1.84 -4.11,-4.113 h -0.008 c 0,-5.79 5.571,-8.766 12.379,-8.766 6.813,0 12.336,3.531 12.336,10.344 l 0.004,52.586 c 0,5.773 0,8.632 4.098,8.632 3.812,0 4.148,-2.851 4.148,-7.05 h 0.004 c 0,-2.278 1.84,-4.114 4.109,-4.114 2.274,0 4.114,1.836 4.114,4.114 h 0.008 c 0,5.785 -5.571,8.765 -12.383,8.765"
                 style="fill:#ffffff;fill-opacity:1;fill-rule:nonzero;stroke:none"
                 id="path64"
                 inkscape:connector-curvature="0" /></g></g></g></g></g></g></svg>